{
  "accessors": [
    {
      "bufferView": 2,
      "componentType": 5126,
      "count": 1619,
      "max": [
        126.55186462402344,
        34.1233024597168,
        27.832080841064453
      ],
      "min": [
        -126.75183868408203,
        -32.35580062866211,
        -27.845794677734375
      ],
      "type": "VEC3"
    },
    {
      "bufferView": 2,
      "byteOffset": 19428,
      "componentType": 5126,
      "count": 1619,
      "max": [
        0.9994956851005554,
        0.9993263483047485,
        0.9999364614486694
      ],
      "min": [
        -0.9999860525131226,
        -0.9987262487411499,
        -0.999877393245697
      ],
      "type": "VEC3"
    },
    {
      "bufferView": 3,
      "componentType": 5126,
      "count": 1619,
      "max": [
        0.999783456325531,
        0.9926245808601379,
        0.99006187915802,
        1.0
      ],
      "min": [
        -0.9995622038841248,
        -0.9999963045120239,
        -0.9969667196273804,
        -1.0
      ],
      "type": "VEC4"
    },
    {
      "bufferView": 1,
      "componentType": 5126,
      "count": 1619,
      "max": [
        0.9923979043960571,
        0.998046875
      ],
      "min": [
        0.001953130355104804,
        0.001953130355104804
      ],
      "type": "VEC2"
    },
    {
      "bufferView": 0,
      "componentType": 5125,
      "count": 8988,
      "type": "SCALAR"
    }
  ],
  "asset": {
    "extras": {
      "author": "pau.raurellgomis (https://sketchfab.com/pau.raurellgomis)",
      "license": "CC-BY-4.0 (http://creativecommons.org/licenses/by/4.0/)",
      "source": "https://sketchfab.com/3d-models/stylized-log-411b8aaa3dec42e68a16da9ae890bfa3",
      "title": "Stylized Log"
    },
    "generator": "Sketchfab-14.2.0",
    "version": "2.0"
  },
  "bufferViews": [
    {
      "buffer": 0,
      "byteLength": 35952,
      "name": "floatBufferViews",
      "target": 34963
    },
    {
      "buffer": 0,
      "byteLength": 12952,
      "byteOffset": 35952,
      "byteStride": 8,
      "name": "floatBufferViews",
      "target": 34962
    },
    {
      "buffer": 0,
      "byteLength": 38856,
      "byteOffset": 48904,
      "byteStride": 12,
      "name": "floatBufferViews",
      "target": 34962
    },
    {
      "buffer": 0,
      "byteLength": 25904,
      "byteOffset": 87760,
      "byteStride": 16,
      "name": "floatBufferViews",
      "target": 34962
    }
  ],
  "buffers": [
    {
      "byteLength": 113664,
      "uri": "scene.bin"
    }
  ],
  "images": [
    {
      "uri": "textures/pPipe5_baseColor.png"
    },
    {
      "uri": "textures/pPipe5_normal.png"
    }
  ],
  "materials": [
    {
      "doubleSided": true,
      "name": "pPipe5",
      "normalTexture": {
        "index": 1
      },
      "pbrMetallicRoughness": {
        "baseColorTexture": {
          "index": 0
        },
        "metallicFactor": 0.0
      }
    }
  ],
  "meshes": [
    {
      "name": "log_pPipe5_0",
      "primitives": [
        {
          "attributes": {
            "NORMAL": 1,
            "POSITION": 0,
            "TANGENT": 2,
            "TEXCOORD_0": 3
          },
          "indices": 4,
          "material": 0,
          "mode": 4
        }
      ]
    }
  ],
  "nodes": [
    {
      "children": [
        1
      ],
      "matrix": [
        1.0,
        0.0,
        0.0,
        0.0,
        0.0,
        2.220446049250313e-16,
        -1.0,
        0.0,
        0.0,
        1.0,
        2.220446049250313e-16,
        0.0,
        0.0,
        0.0,
        0.0,
        1.0
      ],
      "name": "Sketchfab_model"
    },
    {
      "children": [
        2
      ],
      "matrix": [
        0.009999999776482582,
        0.0,
        0.0,
        0.0,
        0.0,
        0.0,
        0.009999999776482582,
        0.0,
        0.0,
        -0.009999999776482582,
        0.0,
        0.0,
        0.0,
        0.0,
        0.0,
        1.0
      ],
      "name": "8dccc6a867884fae81a478f2740510c5.fbx"
    },
    {
      "children": [
        3
      ],
      "name": "RootNode"
    },
    {
      "children": [
        4
      ],
      "name": "log"
    },
    {
      "mesh": 0,
      "name": "log_pPipe5_0"
    }
  ],
  "samplers": [
    {
      "magFilter": 9729,
      "minFilter": 9987,
      "wrapS": 10497,
      "wrapT": 10497
    }
  ],
  "scene": 0,
  "scenes": [
    {
      "name": "Sketchfab_Scene",
      "nodes": [
        0
      ]
    }
  ],
  "textures": [
    {
      "sampler": 0,
      "source": 0
    },
    {
      "sampler": 0,
      "source": 1
    }
  ]
}
