{
  "accessors": [
    {
      "bufferView": 2,
      "componentType": 5126,
      "count": 1550,
      "max": [
        0.9559630155563354,
        0.0799378976225853,
        1.0
      ],
      "min": [
        -0.9559630155563354,
        -0.0799378976225853,
        -1.0
      ],
      "type": "VEC3"
    },
    {
      "bufferView": 2,
      "byteOffset": 18600,
      "componentType": 5126,
      "count": 1550,
      "max": [
        0.9987223744392395,
        0.9999925494194031,
        0.9912553429603577
      ],
      "min": [
        -0.9990744590759277,
        -0.8640108704566956,
        -0.9993429780006409
      ],
      "type": "VEC3"
    },
    {
      "bufferView": 3,
      "componentType": 5126,
      "count": 1550,
      "max": [
        1.0,
        0.9998731017112732,
        0.9999748468399048,
        1.0
      ],
      "min": [
        -0.9643064141273499,
        -0.998939573764801,
        -0.9975885152816772,
        1.0
      ],
      "type": "VEC4"
    },
    {
      "bufferView": 1,
      "componentType": 5126,
      "count": 1550,
      "max": [
        0.9980469942092896,
        0.9845820069313049
      ],
      "min": [
        0.0019531298894435167,
        0.0019531298894435167
      ],
      "type": "VEC2"
    },
    {
      "bufferView": 0,
      "componentType": 5125,
      "count": 8640,
      "type": "SCALAR"
    }
  ],
  "asset": {
    "extras": {
      "author": "Kallvin (https://sketchfab.com/Kallvin)",
      "license": "CC-BY-4.0 (http://creativecommons.org/licenses/by/4.0/)",
      "source": "https://sketchfab.com/3d-models/ground-pebbles-4caf4887845f4e04bcf68bc3df36afe9",
      "title": "Ground Pebbles"
    },
    "generator": "Sketchfab-12.67.0",
    "version": "2.0"
  },
  "bufferViews": [
    {
      "buffer": 0,
      "byteLength": 34560,
      "name": "floatBufferViews",
      "target": 34963
    },
    {
      "buffer": 0,
      "byteLength": 12400,
      "byteOffset": 34560,
      "byteStride": 8,
      "name": "floatBufferViews",
      "target": 34962
    },
    {
      "buffer": 0,
      "byteLength": 37200,
      "byteOffset": 46960,
      "byteStride": 12,
      "name": "floatBufferViews",
      "target": 34962
    },
    {
      "buffer": 0,
      "byteLength": 24800,
      "byteOffset": 84160,
      "byteStride": 16,
      "name": "floatBufferViews",
      "target": 34962
    }
  ],
  "buffers": [
    {
      "byteLength": 108960,
      "uri": "scene.bin"
    }
  ],
  "images": [
    {
      "uri": "textures/SM_GroundPebbles_01_baseColor.jpeg"
    },
    {
      "uri": "textures/SM_GroundPebbles_01_metallicRoughness.png"
    },
    {
      "uri": "textures/SM_GroundPebbles_01_normal.jpeg"
    }
  ],
  "materials": [
    {
      "doubleSided": true,
      "name": "SM_GroundPebbles_01",
      "normalTexture": {
        "index": 2
      },
      "occlusionTexture": {
        "index": 1
      },
      "pbrMetallicRoughness": {
        "baseColorTexture": {
          "index": 0
        },
        "metallicRoughnessTexture": {
          "index": 1
        }
      }
    }
  ],
  "meshes": [
    {
      "name": "defaultMaterial",
      "primitives": [
        {
          "attributes": {
            "NORMAL": 1,
            "POSITION": 0,
            "TANGENT": 2,
            "TEXCOORD_0": 3
          },
          "indices": 4,
          "material": 0,
          "mode": 4
        }
      ]
    }
  ],
  "nodes": [
    {
      "children": [
        1
      ],
      "matrix": [
        1.0,
        0.0,
        0.0,
        0.0,
        0.0,
        2.220446049250313e-16,
        -1.0,
        0.0,
        0.0,
        1.0,
        2.220446049250313e-16,
        0.0,
        0.0,
        0.0,
        0.0,
        1.0
      ],
      "name": "Sketchfab_model"
    },
    {
      "children": [
        2
      ],
      "matrix": [
        1.0,
        0.0,
        0.0,
        0.0,
        0.0,
        -4.371139006309477e-08,
        0.999999999999999,
        0.0,
        0.0,
        -0.999999999999999,
        -4.371139006309477e-08,
        0.0,
        0.0,
        0.0,
        0.0,
        1.0
      ],
      "name": "Collada visual scene group"
    },
    {
      "children": [
        3
      ],
      "name": "SM_GroundPebbles_01"
    },
    {
      "mesh": 0,
      "name": "defaultMaterial"
    }
  ],
  "samplers": [
    {
      "magFilter": 9729,
      "minFilter": 9987,
      "wrapS": 10497,
      "wrapT": 10497
    }
  ],
  "scene": 0,
  "scenes": [
    {
      "name": "Sketchfab_Scene",
      "nodes": [
        0
      ]
    }
  ],
  "textures": [
    {
      "sampler": 0,
      "source": 0
    },
    {
      "sampler": 0,
      "source": 1
    },
    {
      "sampler": 0,
      "source": 2
    }
  ]
}
